<svg xmlns="http://www.w3.org/2000/svg" width="83" height="83" viewBox="0 0 83 83">
  <g id="Group_4723" data-name="Group 4723" transform="translate(-618 -1846)">
    <circle id="Ellipse_12" data-name="Ellipse 12" cx="41.5" cy="41.5" r="41.5" transform="translate(618 1846)" fill="#0077bc"/>
    <g id="Group_4702" data-name="Group 4702" transform="translate(618 1873.948)">
      <path id="Path_16338" data-name="Path 16338" d="M396.3,587.034c-3.446,0-6.488-.031-9.53.031a2.408,2.408,0,0,0-1.335.683c-1.4,1.149-2.67,2.452-4.129,3.508a5.376,5.376,0,0,1-2.732,1.024c-8.941.062-17.881.031-26.853.062a2.937,2.937,0,0,1-2.887-1.335c-1.956-3.384-4.812-4.5-8.661-4a49.718,49.718,0,0,1-7.45.031c-1.087-.031-1.645.248-1.552,1.459.093,1.273,0,2.577.031,3.88a8.872,8.872,0,0,0,1.832,5.495c.279.341.062,1.087.093,1.645-.59-.093-1.428.062-1.738-.279a8.447,8.447,0,0,1-2.328-5.774c-.093-2.328,0-4.656-.062-6.985-.031-1.211.528-1.614,1.676-1.645,3.1-.062,3.1-.093,3.974-3.135.807-2.825,1.676-5.65,2.421-8.475a1.846,1.846,0,0,1,2.08-1.583c2.328.062,4.625,0,7.2,0v-5.06c0-.807,0-1.676,1.118-1.676s1.055.9,1.055,1.707v4.9a11.162,11.162,0,0,1,2.577.155c.559.186,1.335.807,1.335,1.242.093,4.067.062,8.164.062,12.386h-2.173V573.841c-3.663,0-7.109,0-10.555.031a1.011,1.011,0,0,0-.714.621c-.993,3.353-1.956,6.737-2.98,10.306,3.042,0,5.867.062,8.692-.031a2.579,2.579,0,0,1,2.639,1.211c2.049,3.57,5.091,4.781,9.065,4.129a17.554,17.554,0,0,1,2.577-.031V578h9.934v-6.954h22.227V584.8c2.235,0,4.284-.031,6.333.031.559.031,1.49.186,1.614.528a2.273,2.273,0,0,1-.373,1.8c-2.421,3.787-4.9,7.544-7.357,11.3-.435.683-.931,1.428-1.832.869-1.024-.621-.466-1.428,0-2.142,1.832-2.825,3.694-5.619,5.526-8.444A16.738,16.738,0,0,0,396.3,587.034Zm-24.8-9.158h7.481v-4.563H371.5Zm17.446-4.563h-7.481v4.532h7.481Zm-19.961,11.424v-4.594c-2.3,0-4.5-.031-6.705.031a1.082,1.082,0,0,0-.776.683c-.093,1.273-.031,2.546-.031,3.88Zm10,0v-4.47H371.5v4.47Zm2.484-4.563v4.532H389c0-1.3.062-2.484-.031-3.663-.031-.31-.5-.838-.776-.838C386.024,580.142,383.82,580.173,381.461,580.173Zm-9.965,6.954v3.011a44.685,44.685,0,0,1,5.4.031c2.639.373,3.943-1.4,5.681-3.042Zm-9.965,2.887h7.419V587.1h-7.419Z" transform="translate(-322.789 -564.9)" fill="#fff"/>
      <path id="Path_16339" data-name="Path 16339" d="M340.137,679.31a14.266,14.266,0,0,1-7.7,2.484,10.911,10.911,0,0,1-6.3-1.8,1.867,1.867,0,0,0-2.328-.031c-4.719,2.608-9.344,2.608-13.814-.621-.341-.248-.745-.5-.869-.838a1.439,1.439,0,0,1,.031-1.242c.217-.279.807-.31,1.211-.341.217,0,.435.248.621.4,3.943,3.042,8.04,3.011,12.107.435a3.018,3.018,0,0,1,3.943.124c3.787,2.639,7.73,2.173,11.455-.279a2.53,2.53,0,0,1,3.415.062c3.725,2.732,7.668,2.483,11.455.093,1.459-.931,2.421-1.055,3.943.031,3.818,2.732,7.823,2.235,11.579-.248,1.211-.776,2.049-.9,3.26.062,3.446,2.7,7.668,2.608,11.89,0,.776-.466,1.707-1.583,2.483-.31.838,1.335-.621,1.738-1.428,2.235-4.563,2.825-9.189,3.135-13.907.248a1.844,1.844,0,0,0-1.614.031c-4.594,2.546-9.1,2.732-13.659-.093a1.449,1.449,0,0,0-1.335,0C349.7,682.569,344.886,682.6,340.137,679.31Z" transform="translate(-309 -641.996)" fill="#fff"/>
      <path id="Path_16340" data-name="Path 16340" d="M382.5,605.1h1.894c.807,2.918.4,3.6-1.894,3.291Z" transform="translate(-359.683 -592.62)" fill="#fff"/>
      <path id="Path_16341" data-name="Path 16341" d="M369.387,608.591H367.4V605.3h1.987Z" transform="translate(-349.271 -592.758)" fill="#fff"/>
    </g>
  </g>
</svg>
