<svg xmlns="http://www.w3.org/2000/svg" width="83" height="83" viewBox="0 0 83 83">
  <g id="Group_4736" data-name="Group 4736" transform="translate(-112 -1713)">
    <circle id="Ellipse_9" data-name="Ellipse 9" cx="41.5" cy="41.5" r="41.5" transform="translate(112 1713)" fill="#0077bc"/>
    <g id="Group_4721" data-name="Group 4721" transform="translate(0 -12)">
      <path id="Path_16241" data-name="Path 16241" d="M408,123.517V89.647h-6.872a3.322,3.322,0,0,1-1.141-.026,4.829,4.829,0,0,1-1.037-.908c.337-.311.674-.83,1.063-.856a26.618,26.618,0,0,1,3.216-.052h5.031c1.53,0,1.712.182,1.712,1.712v31.121c0,1.037-.052,2.075.026,3.086.078,1.245-.441,1.66-1.66,1.634-7.028-.052-14.03-.026-21.058-.026H369.2c-5.861,0-9.8-3.942-9.8-9.8V90.607c0-5.939,3.942-9.881,9.855-9.907,2.749,0,2.749,0,2.775,2.723,0,9.051-.026,18.076.026,27.127,0,1.245-.259,1.841-1.686,1.945a6.865,6.865,0,0,0-5.342,3.216c-.415.6-.856,1.245-1.634.726-.8-.545-.285-1.193.1-1.789a9.477,9.477,0,0,1,6.639-4.046V82.827a7.334,7.334,0,0,0-8.74,6.043,18.1,18.1,0,0,0-.13,2.049c0,8.04-.026,16.1,0,24.145,0,5.472,3.008,8.454,8.454,8.454H408Z" transform="translate(-232.541 1664.737)" fill="#fff"/>
      <path id="Path_16242" data-name="Path 16242" d="M445.694,94.319a5.242,5.242,0,0,1-.156,1.53,1.472,1.472,0,0,1-.934.83c-.233.052-.83-.467-.83-.752q-.117-2.451,0-4.9c.026-.285.571-.83.8-.8a1.536,1.536,0,0,1,.96.8,3.617,3.617,0,0,1,.13,1.349h3.994q-1.362-3.307-2.567-6.3h-4.876c-.8,1.919-1.66,4.046-2.593,6.276A4.085,4.085,0,0,1,441,92.5a1.274,1.274,0,0,1,.726.882c0,.285-.467.83-.726.83q-3.929.117-7.858,0a1.132,1.132,0,0,1-.752-.908,1.28,1.28,0,0,1,.908-.83c1.141-.1,2.334.026,3.475-.078a1.593,1.593,0,0,0,1.115-.726q1.323-3,2.49-6.069a1.752,1.752,0,0,0-.182-1.349c-2.282-3.086-2-6.224.882-8.843a1.888,1.888,0,0,0,.545-1.193c.078-1.167.052-2.334.026-3.475-.026-.908.311-1.374,1.271-1.349,1.193.026,2.412.026,3.6,0,.856-.026,1.271.363,1.271,1.219-.026.571.026,1.115,0,1.686a4.6,4.6,0,0,0,1.426,4.072,5.579,5.579,0,0,1,.182,7.547,1.7,1.7,0,0,0-.259,2.075c.8,1.815,1.556,3.631,2.256,5.472a1.312,1.312,0,0,0,1.53.985,14.068,14.068,0,0,1,2.956.026,1.582,1.582,0,0,1,1.167.856c.182.8-.519.96-1.167.96h-8.377C446.861,94.319,446.316,94.319,445.694,94.319Zm-1.011-9.907a4.239,4.239,0,0,0,4.123-4.124,4.163,4.163,0,1,0-8.325.052A4.226,4.226,0,0,0,444.682,84.412Zm1.063-10.166v-2.9c-2.49-.337-2.879.259-2.1,2.9Z" transform="translate(-286.599 1673.11)" fill="#fff"/>
      <path id="Path_16243" data-name="Path 16243" d="M434.994,173.622c-.1.337-.156.493-.207.648-1.4,3.423-2.775,6.821-4.175,10.244-.026.078-.052.207-.1.233-.415.182-.856.363-1.271.519-.13-.389-.493-.882-.389-1.193,1.375-3.553,2.827-7.08,4.305-10.581a1.336,1.336,0,0,1,1.089-.6C434.527,172.87,434.786,173.388,434.994,173.622Z" transform="translate(-283.964 1596.452)" fill="#fff"/>
      <path id="Path_16244" data-name="Path 16244" d="M513.188,184.647c-.207.207-.415.622-.7.674a1.248,1.248,0,0,1-.985-.337,6.131,6.131,0,0,1-.7-1.5c-1.219-2.982-2.412-5.939-3.631-8.921-.259-.648-.441-1.374.363-1.582a1.623,1.623,0,0,1,1.271.8c1.426,3.294,2.749,6.639,4.124,9.959A5.858,5.858,0,0,1,513.188,184.647Z" transform="translate(-341.826 1596.397)" fill="#fff"/>
      <path id="Path_16245" data-name="Path 16245" d="M420.22,109.923a22.5,22.5,0,0,1-2.957-.052c-.389-.052-.7-.545-1.063-.856.337-.311.674-.882,1.012-.882q3.073-.117,6.146,0c.337.026.648.6.986.908-.363.285-.674.778-1.063.83A23.942,23.942,0,0,1,420.22,109.923Z" transform="translate(-274.61 1644.461)" fill="#fff"/>
      <path id="Path_16246" data-name="Path 16246" d="M476.058,104.8c.389.571,1.011,1.115,1.089,1.712a1.2,1.2,0,0,1-1.452,1.349,2.015,2.015,0,0,1-1.3-1.374c-.026-.545.674-1.115,1.063-1.686Z" transform="translate(-317.715 1646.887)" fill="#fff"/>
    </g>
  </g>
</svg>
