<svg xmlns="http://www.w3.org/2000/svg" width="83" height="83" viewBox="0 0 83 83">
  <g id="Group_4724" data-name="Group 4724" transform="translate(-112 -1559)">
    <circle id="Ellipse_3" data-name="Ellipse 3" cx="41.5" cy="41.5" r="41.5" transform="translate(112 1559)" fill="#0077bc"/>
    <g id="Group_4694" data-name="Group 4694" transform="translate(-1340.023 -46.333)">
      <path id="Path_16315" data-name="Path 16315" d="M67.434,492.812v-6.506c-2.706.186-5.411.578-8.076.5-3.78-.1-7.022-1.528-9.005-5a14.747,14.747,0,0,1-1.136-3.16.674.674,0,0,1,.6-.971c4.089-.475,8.2-.805,12.268.248,2.706.7,5,2.024,6.134,4.812.682-1.239,1.322-2.4,1.983-3.552a2.185,2.185,0,0,1,.558-.723,2.768,2.768,0,0,1,.764-.248,2.69,2.69,0,0,1-.062.826,45.028,45.028,0,0,0-2.148,4.069,17.389,17.389,0,0,0-.805,8.9c.1.7.434.805.971.578a20.356,20.356,0,0,0,2.024-.991,12.234,12.234,0,0,1,12.454-.227c2.871,1.487,4.172,4.151,4.73,7.208a19.211,19.211,0,0,1,.33,3.263c-.021.971.372,1.157,1.219,1.095a23.822,23.822,0,0,1,2.974.021,3.764,3.764,0,0,1,3.821,4.069c.021,2.871.021,5.762,0,8.633-.021,2.52-1.219,3.821-3.759,3.9-2.85.1-5.68.083-8.53.062a1.945,1.945,0,0,0-1.735.847,18.123,18.123,0,0,1-6.527,5.515,8.628,8.628,0,0,1-6.382.537,8.18,8.18,0,0,0-4.234-.062,9.869,9.869,0,0,1-8.571-1.652,23.519,23.519,0,0,1-8.86-12.289A30.458,30.458,0,0,1,46.759,501.3a14.453,14.453,0,0,1,1.879-6.651,9.118,9.118,0,0,1,7.993-4.606,15.693,15.693,0,0,1,7.869,1.549A29,29,0,0,0,67.434,492.812Zm14.809,27.139c-.041-.1-.083-.186-.124-.289H80.8c-6.589,0-13.156-.021-19.745.021-.95,0-1.239-.289-1.219-1.239.062-2.5.021-5,.021-7.5,0-1.363,0-1.363,1.384-1.363H87.323c.744-4.3,1.322-8.489-.041-12.681a7.673,7.673,0,0,0-3.325-4.44c-3.842-2.231-7.869-2.5-11.711-.165a7.23,7.23,0,0,1-7.828.31,14.79,14.79,0,0,0-7.745-1.632c-3.718.165-6.423,1.88-7.786,5.349a17.077,17.077,0,0,0-1.115,4.874,27.889,27.889,0,0,0,2.334,13.012,21.086,21.086,0,0,0,8.86,10.492,7.789,7.789,0,0,0,6.527.847,8.972,8.972,0,0,1,5.163.041,6.709,6.709,0,0,0,2.912.31C77.327,525.28,79.909,522.76,82.243,519.951Zm-4.709-9.377H75.551c0,.744.041,1.466-.021,2.169-.021.31-.289.578-.434.867a3.547,3.547,0,0,1-.413-.909c-.062-.7-.021-1.4-.021-2.127H72.68c0,1.425.021,2.788-.021,4.151,0,.248-.248.475-.392.723a4.109,4.109,0,0,1-.475-.744,2.735,2.735,0,0,1-.021-.826v-3.346h-2c0,.826.041,1.59-.021,2.375-.021.227-.268.454-.413.682-.145-.227-.413-.434-.413-.682-.062-.764-.021-1.549-.021-2.355H66.917v1.157c0,1.033.021,2.065-.041,3.077-.021.227-.289.434-.454.64-.124-.207-.351-.392-.372-.62a12.922,12.922,0,0,1-.021-1.549v-2.706h-2c0,.785.041,1.508-.021,2.21-.021.268-.269.537-.413.805-.145-.248-.413-.5-.434-.764-.062-.744-.021-1.487-.021-2.272H60.783c-.021.392-.062.723-.062,1.053,0,1.962.062,3.9-.021,5.866-.041,1.074.351,1.3,1.342,1.3,7.58-.041,15.16-.021,22.719-.041,2.871,0,5.762,0,8.633-.145,1.9-.083,2.644-1.033,2.664-2.953.021-1.818,0-3.635,0-5.453a4.777,4.777,0,0,0-.083-.661c-1.074.392-2.065.744-3.181,1.157,0,.682.041,1.425-.021,2.169a2.192,2.192,0,0,1-.372.723c-.165-.248-.454-.475-.475-.723-.062-.764-.021-1.528-.021-2.272h-2v1.3c0,.991.021,1.983-.021,2.974,0,.207-.269.392-.413.578-.145-.186-.372-.351-.434-.578a3.483,3.483,0,0,1-.021-.929v-3.387H87.034c0,.805.041,1.549-.021,2.293-.021.268-.289.5-.454.744-.145-.248-.372-.475-.392-.723-.041-.764-.021-1.528-.021-2.293H84.163c0,1.343.021,2.6-.021,3.862a3.737,3.737,0,0,1-.413,1.012c-.165-.33-.434-.64-.434-.971-.062-1.3-.021-2.582-.021-3.924H81.292c0,.723.041,1.4-.021,2.065a4.009,4.009,0,0,1-.434.971,3.87,3.87,0,0,1-.413-1.012c-.062-.661-.021-1.342-.021-2h-2c0,1.343.021,2.6-.021,3.862a3.215,3.215,0,0,1-.392,1.012,3.325,3.325,0,0,1-.454-1.053C77.492,513.156,77.533,511.9,77.533,510.574ZM50.126,478.643A8.519,8.519,0,0,0,55,484.86a12.376,12.376,0,0,0,6.217,1.074c1.838-.124,3.676-.392,5.494-.6,0-.124.021-.227.021-.351-.33-.227-.661-.475-.991-.682a26.582,26.582,0,0,0-10.885-3.429c-.31-.041-.578-.331-.867-.5.33-.145.7-.454.991-.392,2.644.578,5.308,1.074,7.869,1.88a31.4,31.4,0,0,1,4.585,2.251c0-.021.062-.083.062-.124a1.431,1.431,0,0,0-.062-.413,5.687,5.687,0,0,0-3.842-4.11,23.849,23.849,0,0,0-4.978-1.136A31.725,31.725,0,0,0,50.126,478.643Zm38.21,30.774a46.166,46.166,0,0,0,5.349-.041,2.478,2.478,0,0,0,2.4-2.726,2.764,2.764,0,0,0-2.6-2.706,30.715,30.715,0,0,0-3.9-.1c-.227,0-.62.413-.661.661C88.687,506.134,88.521,507.786,88.335,509.418Z" transform="translate(1425.3 1146.771)" fill="#fff" stroke="#fff" stroke-width="1"/>
      <path id="Path_16316" data-name="Path 16316" d="M217.527,524.8c-.372.227-.661.475-.7.434-.5-.413-.971-.888-1.425-1.322.186-.124.454-.372.516-.33A19.508,19.508,0,0,1,217.527,524.8Z" transform="translate(1291.461 1109.99)" fill="#fff" stroke="#fff" stroke-width="1"/>
      <path id="Path_16317" data-name="Path 16317" d="M257.561,532.07a12.337,12.337,0,0,1-1.446.661,1.612,1.612,0,0,1-.805-.1.713.713,0,0,1-.041-.351q.96-.372,1.921-.682C257.231,531.574,257.334,531.78,257.561,532.07Z" transform="translate(1259.833 1103.63)" fill="#fff" stroke="#fff" stroke-width="1"/>
      <path id="Path_16318" data-name="Path 16318" d="M227.308,514.5a4.858,4.858,0,0,1,.578,1.033,4.012,4.012,0,0,1,.041,1.115c0,.021-.351.062-.351.021-.248-.6-.475-1.2-.682-1.818C226.874,514.83,227.08,514.707,227.308,514.5Z" transform="translate(1282.342 1117.193)" fill="#fff" stroke="#fff" stroke-width="1"/>
      <path id="Path_16319" data-name="Path 16319" d="M250.232,518.5c.289.372.558.64.516.682-.392.516-.847.991-1.281,1.487-.124-.124-.392-.31-.372-.351C249.426,519.76,249.777,519.2,250.232,518.5Z" transform="translate(1264.726 1114.019)" fill="#fff" stroke="#fff" stroke-width="1"/>
      <path id="Path_16320" data-name="Path 16320" d="M167.576,503.636a4.656,4.656,0,0,1-.578.516c-.454-.372-.888-.785-1.3-1.2a2.558,2.558,0,0,1,.372-.454C166.564,502.83,167.019,503.2,167.576,503.636Z" transform="translate(1330.899 1126.715)" fill="#fff" stroke="#fff" stroke-width="1"/>
      <path id="Path_16321" data-name="Path 16321" d="M257.047,543.2c.5.289.909.558,1.322.806-.248.124-.537.413-.744.372a7.845,7.845,0,0,1-1.425-.62C256.448,543.592,256.7,543.427,257.047,543.2Z" transform="translate(1259.088 1094.421)" fill="#fff" stroke="#fff" stroke-width="1"/>
      <path id="Path_16322" data-name="Path 16322" d="M180.723,501.2c.207.392.413.682.372.744a17.527,17.527,0,0,1-1.26,1.219c-.124-.165-.392-.434-.351-.5C179.814,502.191,180.227,501.778,180.723,501.2Z" transform="translate(1319.963 1127.746)" fill="#fff" stroke="#fff" stroke-width="1"/>
      <path id="Path_16323" data-name="Path 16323" d="M254.227,555.141c-.392.248-.682.475-.723.434-.5-.372-.929-.785-1.4-1.2.145-.145.392-.434.434-.392C253.05,554.294,253.546,554.666,254.227,555.141Z" transform="translate(1262.341 1085.867)" fill="#fff" stroke="#fff" stroke-width="1"/>
      <path id="Path_16324" data-name="Path 16324" d="M240.748,514.681c-.351.516-.64.95-.929,1.363-.124-.207-.413-.454-.351-.6a9.947,9.947,0,0,1,.64-1.446C240.272,514.165,240.458,514.372,240.748,514.681Z" transform="translate(1272.372 1117.59)" fill="#fff" stroke="#fff" stroke-width="1"/>
      <path id="Path_16325" data-name="Path 16325" d="M166.819,515a4.628,4.628,0,0,1,.475.682,10.749,10.749,0,0,1-1.2,1.177c-.041.021-.33-.227-.5-.351C165.972,516.033,166.344,515.578,166.819,515Z" transform="translate(1330.975 1116.796)" fill="#fff" stroke="#fff" stroke-width="1"/>
      <path id="Path_16326" data-name="Path 16326" d="M181.4,517.436c-.372.248-.64.5-.682.454a12.613,12.613,0,0,1-1.219-1.136,3.649,3.649,0,0,1,.33-.454C180.323,516.63,180.777,516.982,181.4,517.436Z" transform="translate(1319.95 1115.765)" fill="#fff" stroke="#fff" stroke-width="1"/>
      <path id="Path_16327" data-name="Path 16327" d="M76.864,556.165c-.537-.1-.909-.207-1.281-.248a5.2,5.2,0,0,0-5.287,2.809c-.165.289-.558.434-.847.64.021-.372-.083-.805.083-1.095a6.06,6.06,0,0,1,7.208-3.077c.269.083.434.413.661.64C77.195,555.979,76.967,556.1,76.864,556.165Z" transform="translate(1407.278 1085.132)" fill="#fff" stroke="#fff" stroke-width="1"/>
      <path id="Path_16328" data-name="Path 16328" d="M66.225,583.437c-.413.268-.661.578-.847.537-.207-.021-.392-.372-.578-.558.207-.186.372-.5.6-.516C65.585,582.9,65.812,583.168,66.225,583.437Z" transform="translate(1410.956 1062.92)" fill="#fff" stroke="#fff" stroke-width="1"/>
    </g>
  </g>
</svg>
