<svg xmlns="http://www.w3.org/2000/svg" width="83" height="83" viewBox="0 0 83 83">
  <g id="Group_4725" data-name="Group 4725" transform="translate(-648 -1549)">
    <circle id="Ellipse_8" data-name="Ellipse 8" cx="41.5" cy="41.5" r="41.5" transform="translate(648 1549)" fill="#0077bc"/>
    <path id="Path_16230" data-name="Path 16230" d="M50.4,484.654c-.157-.136-.55-.489-1.152-1.031,1.859-1.764,3.614-3.42,5.369-5.1,0-.136-.026-.271-.026-.38-3.509.326-6.993.651-10.685,1-.079-.326-.236-.841-.471-1.683,2.1-.326,4.086-.679,6.076-.923a13.532,13.532,0,0,1,3.771-.081c3.667.651,6.783-.76,10.057-2.823-8.328-1.629-16.316-1.6-24.33,1.249-.21-.6-.393-1.14-.707-1.982,2.724-.624,5.316-1.384,7.935-1.819a51.272,51.272,0,0,1,19.8,1.086,4.426,4.426,0,0,0,2.148-.054,58.948,58.948,0,0,1,33.313.271c.419.136.812.271,1.336.461-.183.6-.34,1.14-.5,1.656-2.567-.6-4.976-1.33-7.438-1.737-12.571-2.144-24.7-.977-36.01,5.537C55.952,480.012,53.359,482.4,50.4,484.654Z" transform="translate(617.7 1130.063)" fill="#fff"/>
    <path id="Path_16231" data-name="Path 16231" d="M128.1,516.006c1.466,3.366,2.877,6.569,4.4,9.989-.869.244-1.411.38-2.063.57-.434-1.194-.733-2.389-1.221-3.447-.9-1.9-1.9-3.773-2.85-5.646a.938.938,0,0,0-1.411-.489c-1.574.679-3.149,1.276-4.913,1.982a21.372,21.372,0,0,1,3.5,9.066c-.6.136-1.14.244-1.791.38-.814-2.932-1.357-5.89-3.556-8.387-1.439,1.167-2.8,2.28-4.262,3.474-.38-.326-.814-.679-1.33-1.113a19.643,19.643,0,0,1,6.189-4.859,44.826,44.826,0,0,1,23.371-4.886c3.583.163,7.112.923,10.668,1.438a14.186,14.186,0,0,1,1.466.434c-.163.6-.3,1.086-.461,1.71-2.5-.489-4.913-.95-7.356-1.412,1.466,2.47,2.85,4.8,4.343,7.356-.869.326-1.439.516-1.683.6-1.574-2.307-3.04-4.533-4.56-6.65a3.691,3.691,0,0,0-3.61-1.6c-1.547.136-3.122.027-4.8.027,1.792,3.257,3.447,6.27,5.212,9.555-.923.3-1.493.461-1.764.543-1.737-2.877-3.366-5.592-4.994-8.333a2.256,2.256,0,0,0-2.85-1.086C130.542,515.571,129.266,515.761,128.1,516.006Z" transform="translate(561.216 1098.224)" fill="#fff"/>
    <path id="Path_16232" data-name="Path 16232" d="M145.233,493.841c-.19.624-.353,1.14-.489,1.6-16.856-3.827-32.817-3.257-46.85,8.74a5.51,5.51,0,0,1-.543-.38,6.6,6.6,0,0,1-.651-.624,24.261,24.261,0,0,1,7.465-5.945c8.93-4.859,18.594-6.379,28.61-5.673,3.556.244,7.085,1.113,10.64,1.71A10.7,10.7,0,0,1,145.233,493.841Z" transform="translate(572.8 1114.125)" fill="#fff"/>
    <g id="Group_4689" data-name="Group 4689" transform="translate(682.083 1575.681)">
      <path id="Path_16233" data-name="Path 16233" d="M139.8,430.452c-.6.19-1.14.38-1.71.57-2.389-5.754-6.542-9.066-12.785-8.822-6.189.244-10.07,3.8-12.052,9.69-.57-.136-1.113-.271-1.656-.38.651-5.347,6.487-10.613,12.35-11.21A14.752,14.752,0,0,1,139.8,430.452Z" transform="translate(-104.208 -411.668)" fill="#fff"/>
      <path id="Path_16234" data-name="Path 16234" d="M162.215,391.493a6.192,6.192,0,0,1-.027,1.737c-.136.407-.624.706-.95,1.059-.326-.3-.9-.6-.923-.923a23.17,23.17,0,0,1,.027-3.882c.027-.3.6-.814.841-.787a1.361,1.361,0,0,1,.977.814,8.039,8.039,0,0,1,.054,1.982Z" transform="translate(-139.649 -388.696)" fill="#fff"/>
      <path id="Path_16235" data-name="Path 16235" d="M103.143,412.1a6.3,6.3,0,0,1,.869.461,30.25,30.25,0,0,1,2.443,2.5c.244.3.136.923.19,1.411-.516-.027-1.194.136-1.52-.109a17.7,17.7,0,0,1-2.47-2.47,1.671,1.671,0,0,1-.217-1.221C102.464,412.48,102.871,412.317,103.143,412.1Z" transform="translate(-97.515 -405.747)" fill="#fff"/>
      <path id="Path_16236" data-name="Path 16236" d="M129.571,393.1c.624.57,1,.76,1.14,1.086a24.339,24.339,0,0,1,1.384,3.366c.109.353-.3.9-.461,1.33-.434-.217-1.059-.326-1.249-.651a16.9,16.9,0,0,1-1.357-3.339C128.892,394.457,129.3,393.887,129.571,393.1Z" transform="translate(-116.885 -391.905)" fill="#fff"/>
      <path id="Path_16237" data-name="Path 16237" d="M190.532,395.817c-.651,1.466-1.194,2.823-1.873,4.153a1,1,0,0,1-1.031.19,1.194,1.194,0,0,1-.489-1.059,29.808,29.808,0,0,1,1.547-3.719,1.3,1.3,0,0,1,1.113-.407C190.043,395.029,190.26,395.518,190.532,395.817Z" transform="translate(-159.226 -393.264)" fill="#fff"/>
      <path id="Path_16238" data-name="Path 16238" d="M85.189,439c1.466.651,2.85,1.221,4.153,1.873a1.013,1.013,0,0,1,.217,1.031,1.323,1.323,0,0,1-1.059.543,29.791,29.791,0,0,1-3.719-1.547,1.3,1.3,0,0,1-.407-1.113C84.429,439.489,84.891,439.271,85.189,439Z" transform="translate(-84.366 -425.346)" fill="#fff"/>
      <path id="Path_16239" data-name="Path 16239" d="M229.782,440.492c-.624.651-.841,1.059-1.194,1.221a23.642,23.642,0,0,1-3.23,1.3c-.38.109-.9-.271-1.357-.407.19-.434.3-1.086.624-1.276a17,17,0,0,1,3.339-1.384C228.37,439.84,228.94,440.22,229.782,440.492Z" transform="translate(-186.098 -426.023)" fill="#fff"/>
      <path id="Path_16240" data-name="Path 16240" d="M209.808,417.386c-.19-.136-.57-.3-.679-.57a1.121,1.121,0,0,1,.109-.977,35.287,35.287,0,0,1,2.85-2.85,1.207,1.207,0,0,1,1.167.081,1.147,1.147,0,0,1,.19,1.059c-.977,1.086-2.036,2.117-3.094,3.149C210.27,417.331,210.107,417.3,209.808,417.386Z" transform="translate(-175.218 -406.31)" fill="#fff"/>
    </g>
  </g>
</svg>
