<svg xmlns="http://www.w3.org/2000/svg" width="83" height="83" viewBox="0 0 83 83">
  <g id="Group_4722" data-name="Group 4722" transform="translate(-112 -1857)">
    <circle id="Ellipse_6" data-name="Ellipse 6" cx="41.5" cy="41.5" r="41.5" transform="translate(112 1857)" fill="#0077bc"/>
    <g id="Group_4704" data-name="Group 4704" transform="translate(125.847 1870.192)">
      <path id="Path_16342" data-name="Path 16342" d="M391.337,150.2a4.047,4.047,0,0,1-1.26.412c-7.318.024-14.612.024-21.93.024-.194,0-.412-.024-.7-.048v-4.822c0-1.284-.242-1.5-1.575-1.527h-3.732c-1.309,0-1.5.194-1.5,1.454,0,1.527,0,3.053-.024,4.58a1.294,1.294,0,0,1-.073.315c-.315.024-.654.048-.994.048h-21.3c-1.381,0-1.478-.1-1.478-1.43,0-3.586-.024-7.173,0-10.759a7.7,7.7,0,0,1,7.851-7.8,4.842,4.842,0,0,0,4-1.454A12.3,12.3,0,0,1,350,128.049h1.5c2.205,2.351,4.41,4.7,6.64,7.027a3.353,3.353,0,0,0,1.163.848,1.269,1.269,0,0,1,.9,1.648,6.55,6.55,0,0,1-.339,1.551c-.194.339-.678.533-1.042.8a5,5,0,0,1-.606-1.187,4.535,4.535,0,0,1,.121-1.26c-.1-.048-.17-.073-.267-.121-.969.9-2.278,1.43-3.174,2.69a5.839,5.839,0,0,1,1.527.363,3.723,3.723,0,0,1,.8,1.018,3.936,3.936,0,0,1-1.187.606,3.993,3.993,0,0,1-1.26-.194c-.848-.121-1.527-.388-1.405-1.478a.854.854,0,0,0-.218-.557c-.824-.921-1.672-1.817-2.738-2.956-.533.824-1.163,1.43-1.236,2.06a34.228,34.228,0,0,0-.048,4.459,1.713,1.713,0,0,0,.315.969c.9,1.357,1.842,2.69,2.787,4.023.145.218.412.509.606.509,2.011.048,4.023.024,6.082.024v-3.78a2.487,2.487,0,0,1,2.617-2.593c1.551-.024,3.126,0,4.677,0,1.939,0,2.908.994,2.932,2.981v3.417a37.724,37.724,0,0,1,4.071.024c1.454.145,2.229-.485,3.15-1.551a9.74,9.74,0,0,0,2.593-7.948c-.121-.994-.242-1.769-1.357-2.229-.7,1.551-2.787,2.036-3.053,4.023-.024.145-.291.339-.46.388a12.4,12.4,0,0,1-2.3.412,1.147,1.147,0,0,1-.872-.678,1.188,1.188,0,0,1,.582-.921,7.966,7.966,0,0,1,1.672-.412,4.846,4.846,0,0,0-.678-1.042,17.267,17.267,0,0,0-1.672-1.309,4.761,4.761,0,0,0-.8-.363c-.073.315-.17.63-.218.945-.024.17.17.388.1.509a8.963,8.963,0,0,1-.7,1.139c-.339-.267-.8-.436-.969-.775a8.184,8.184,0,0,1-.388-1.769,1.067,1.067,0,0,1,.8-1.405,5.18,5.18,0,0,0,2.5-1.866c1.842-2.06,3.756-4.047,5.622-6.082h1.5a4.333,4.333,0,0,1,.606.533,6.113,6.113,0,0,0,5.21,2.084,6.63,6.63,0,0,1,5.622,3.126,24.368,24.368,0,0,1,1.551,3.2C391.337,141.376,391.337,145.786,391.337,150.2Zm-1.745-1.309c0-3.732.17-7.391-.048-11.026a5.68,5.68,0,0,0-6.082-5.355c.121.218.363.291.557.436a4.277,4.277,0,0,1,1.769,3.877c-.1,2.351-.073,4.677,0,7.027a7.065,7.065,0,0,1-1.212,4.822c-.024.024.024.121.048.242C386.224,148.888,387.848,148.888,389.592,148.888Zm-46.041-.024c-1.333-1.527-1.26-3.223-1.236-4.919.024-2.06.121-4.119-.024-6.179-.145-2.181.267-4,2.205-5.258.024-.024-.024-.121-.024-.17a5.806,5.806,0,0,0-5.816,5.065,61.3,61.3,0,0,0-.17,7c-.024,1.478,0,2.956,0,4.459Zm7.148-14.1c1.115,1.187,2.157,2.3,3.247,3.441.921-.7,1.817-1.357,2.811-2.108-2.035-2.205-4.023-4.313-6.01-6.47-2.011,1.648-3.926,3.223-5.84,4.822a1.931,1.931,0,1,0,2.447,2.956C348.47,136.578,349.537,135.706,350.7,134.761Zm26.873,0c1.163.969,2.205,1.866,3.3,2.714a1.832,1.832,0,0,0,2.666-.1,1.892,1.892,0,0,0-.145-2.69c-1.89-1.7-3.853-3.32-5.84-5.04-1.963,2.181-3.853,4.289-5.816,6.47.969.751,1.842,1.405,2.738,2.084C375.514,137.063,376.507,135.948,377.573,134.761Zm-.218,14.152a16,16,0,0,1,2.666.024,3.049,3.049,0,0,0,3.611-2.06,2.02,2.02,0,0,0-.339-2.666,1.894,1.894,0,0,0-2.738.412C379.488,145.956,378.518,147.337,377.355,148.912Zm-26.873,0c-1.09-1.575-1.939-2.981-3-4.241a2.356,2.356,0,0,0-1.89-.7c-.582.121-1.115.872-1.454,1.454-.315.509.945,3.174,1.5,3.441a1.134,1.134,0,0,0,.412.048Zm30.242-6.809c1.115.073,2.181.145,3.271.218v-2.762c-1.115.073-2.181.121-3.271.194Zm-33.368,0v-2.351c-1.163-.1-2.205-.17-3.3-.242v2.835C345.175,142.249,346.241,142.176,347.356,142.1Z" transform="translate(-336.756 -128)" fill="#fff"/>
      <path id="Path_16344" data-name="Path 16344" d="M391.6,291.109c-.8.145-1.624.315-2.423.412a13.154,13.154,0,0,1-1.7,0v2.3c0,2.69.024,5.4-.024,8.094-.048,2.617-2.447,4.1-4.556,2.835a3.057,3.057,0,0,1-1.478-2.666c-.024-.485,0-.993,0-1.551H347.445v1.284c-.024,1.987-1.212,3.3-2.956,3.32-1.842.024-3.029-1.236-3.053-3.32-.024-3.029,0-6.034,0-9.063V291.5h-3.15c-.63,0-1.212-.1-1.187-.848,0-.751.582-.848,1.212-.848q26.025,0,52.075.024a4.5,4.5,0,0,1,1.26.412A5.415,5.415,0,0,0,391.6,291.109Zm-44.1,7.609h33.852v-7.124H347.493Zm-4.289-7.124c0,3.611-.048,7.148.048,10.686,0,.412.678,1.018,1.115,1.115a1.069,1.069,0,0,0,1.26-1.115c.048-.945.048-1.914.048-2.884v-7.8Zm40.007,0v10.541a1.15,1.15,0,0,0,1.212,1.309c.824,0,1.236-.557,1.236-1.405v-10.42C384.811,291.593,384.084,291.593,383.211,291.593Z" transform="translate(-337.014 -250.592)" fill="#fff"/>
      <path id="Path_16345" data-name="Path 16345" d="M391.447,234.542a20.64,20.64,0,0,1-1.575,3.2,6.1,6.1,0,0,1-5.137,2.544c-13.74,0-27.479.024-41.219,0a6.812,6.812,0,0,1,0-13.618c13.74-.024,27.479,0,41.219,0a6.766,6.766,0,0,1,6.47,5.065c.073.218.17.46.242.678Zm-27.285-6.2c-6.737,0-13.5-.024-20.234,0a5.117,5.117,0,1,0-.048,10.226c1.6.024,3.2,0,4.8,0h35.379a5.36,5.36,0,0,0,4.58-2.036,4.83,4.83,0,0,0,.533-5.307,4.883,4.883,0,0,0-4.725-2.884Z" transform="translate(-336.865 -202.749)" fill="#fff"/>
      <path id="Path_16347" data-name="Path 16347" d="M516.1,242.876a3.748,3.748,0,0,1,3.78-3.877,3.829,3.829,0,1,1-3.78,3.877Zm5.937-.024a2.1,2.1,0,1,0-2.132,2.084A2.159,2.159,0,0,0,522.036,242.852Z" transform="translate(-472.64 -212.102)" fill="#fff"/>
      <path id="Path_16348" data-name="Path 16348" d="M354.7,246.657a3.829,3.829,0,1,1,3.853-3.8A3.791,3.791,0,0,1,354.7,246.657Zm2.157-3.877a2.121,2.121,0,0,0-4.241.048,2.215,2.215,0,0,0,2.205,2.132A2.248,2.248,0,0,0,356.861,242.78Z" transform="translate(-347.472 -212.102)" fill="#fff"/>
      <path id="Path_16349" data-name="Path 16349" d="M484.5,245.528a2.924,2.924,0,0,1,2.884-3.029,2.981,2.981,0,1,1,.1,5.961A2.953,2.953,0,0,1,484.5,245.528Zm3.247-1.5h-.485c-.339.46-.872.872-.993,1.381-.17.775.412,1.284,1.163,1.309a1.1,1.1,0,0,0,1.236-1.26C488.594,244.946,488.061,244.51,487.746,244.026Z" transform="translate(-448.697 -214.753)" fill="#fff"/>
      <path id="Path_16350" data-name="Path 16350" d="M421.3,245.4a2.981,2.981,0,1,1,2.956,2.932A2.873,2.873,0,0,1,421.3,245.4Zm3.223-1.357c-1.066.218-1.575.63-1.5,1.43a1.171,1.171,0,0,0,1.26,1.163,1.126,1.126,0,0,0,1.187-1.333C425.371,244.8,424.789,244.386,424.523,244.047Z" transform="translate(-400.813 -214.677)" fill="#fff"/>
      <path id="Path_16351" data-name="Path 16351" d="M452.9,245.5a2.938,2.938,0,0,1,2.908-3,2.969,2.969,0,1,1,.073,5.937A2.922,2.922,0,0,1,452.9,245.5Zm4.7-.024c-.775-.582-1.187-1.139-1.7-1.236a1.1,1.1,0,0,0-1.284,1.212,1.118,1.118,0,0,0,1.26,1.236C456.389,246.618,456.826,246.061,457.6,245.48Z" transform="translate(-424.756 -214.753)" fill="#fff"/>
      <path id="Path_16352" data-name="Path 16352" d="M392.749,242.5a2.983,2.983,0,1,1-.242,5.961,2.944,2.944,0,0,1-2.811-3.1A2.91,2.91,0,0,1,392.749,242.5Zm.218,1.648c-1.066.17-1.6.557-1.575,1.357a1.226,1.226,0,0,0,1.236,1.236c.654.048,1.43-.678,1.236-1.284A4.315,4.315,0,0,0,392.967,244.144Z" transform="translate(-376.866 -214.75)" fill="#fff"/>
    </g>
  </g>
</svg>
