<svg xmlns="http://www.w3.org/2000/svg" width="83" height="83" viewBox="0 0 83 83">
  <g id="Group_4731" data-name="Group 4731" transform="translate(-112 -1387)">
    <circle id="Ellipse_5" data-name="Ellipse 5" cx="41.5" cy="41.5" r="41.5" transform="translate(112 1387)" fill="#0077bc"/>
    <g id="Group_4693" data-name="Group 4693" transform="translate(-239.736 1047.848)">
      <path id="Path_16280" data-name="Path 16280" d="M393.65,345.925c1.542.733,3.085,1.492,4.627,2.2,2.5,1.163,5.032,2.326,7.535,3.515a1.432,1.432,0,0,1,.708.683,1.011,1.011,0,0,1-.228.91,1.315,1.315,0,0,1-1.113.1c-1.391-.582-2.756-1.239-4.147-1.9-2.453-1.138-4.906-2.3-7.384-3.414a1.083,1.083,0,0,0-.885-.025q-8.193,3.755-16.335,7.561a3.006,3.006,0,0,0-.43.253c1.34.632,2.6,1.214,3.894,1.8,4.3,2,8.572,3.97,12.871,5.968a.967.967,0,0,0,.91,0c1.972-.936,3.945-1.846,6.018-2.807-.253-.152-.43-.278-.607-.4-2.023-1.214-4.071-2.427-6.069-3.667a1.488,1.488,0,0,1-.632-.683.969.969,0,0,1,.253-.885,1.341,1.341,0,0,1,1.037-.126,6.448,6.448,0,0,1,1.214.683l6.448,3.869a.9.9,0,0,0,.759.076c2.68-1.214,5.361-2.478,8.041-3.717.076-.025.126-.076.278-.152-.4-.2-.759-.354-1.087-.506-.607-.3-.809-.784-.582-1.264a.935.935,0,0,1,1.34-.4c.556.253,1.087.506,1.644.759a1.5,1.5,0,0,1,0,2.883c-1.821.834-3.616,1.694-5.437,2.5-.4.177-.455.379-.354.784.531,1.9,1.011,3.793,1.517,5.664a1.482,1.482,0,0,0,.455.607c.936.91,1.871,1.77,2.782,2.706.582.582.607,1.113.152,1.517-.455.43-.936.329-1.492-.278-.076-.1-.152-.177-.126-.152-1.644,1.113-3.237,2.175-4.8,3.262a.813.813,0,0,0-.253.531,18.6,18.6,0,0,0,.531,5.285,1.226,1.226,0,0,1-.531,1.365.608.608,0,0,0-.228.43c.025.809.076,1.618.126,2.453h10.646c-.228-1.365-.4-2.706-.683-4.021a21.518,21.518,0,0,0-2.048-5.411,1.418,1.418,0,0,1,.025-1.113.967.967,0,0,1,.885-.3,1.4,1.4,0,0,1,.733.657,22.059,22.059,0,0,1,2.655,8.016,23.243,23.243,0,0,1-18.94,26.045,23.254,23.254,0,0,1-18.864-40.863,2.639,2.639,0,0,0,.759-1.517.888.888,0,0,1,.961-.683.929.929,0,0,1,.834,1.037c-.3.607.051.885.506,1.188a20.57,20.57,0,0,0,13.073,3.616,19.007,19.007,0,0,0,5.791-1.264.7.7,0,0,0,.379-.48c.025-2.124.025-4.248.025-6.473a5.182,5.182,0,0,0-.632.278c-1.972.91-3.919,1.8-5.867,2.731a2.227,2.227,0,0,1-2.074,0c-3.06-1.441-6.119-2.857-9.179-4.273-.2-.1-.4-.177-.632-.278-.076.329-.152.582-.228.809a.95.95,0,0,1-1.138.759c-.556-.152-.784-.582-.657-1.239v-.051c.253-1.113.253-1.113-.784-1.593-1.618-.759-3.262-1.517-4.906-2.276a1.48,1.48,0,0,1-1.062-1.391,1.517,1.517,0,0,1,1.062-1.467c5.841-2.706,11.708-5.411,17.549-8.142a5.358,5.358,0,0,0,.506-.3C393.018,345.925,393.322,345.925,393.65,345.925ZM377.315,399.28c.177-.152.354-.3.506-.455a21.086,21.086,0,0,1,5.032-3.363c.48-.228.506-.48.455-.936-.3-2-.582-4-.809-5.993-.1-.885-.126-1.8-.177-2.731h-10.57A21.423,21.423,0,0,0,377.315,399.28Zm26.728-13.453a1.137,1.137,0,0,0-.051.2,44.134,44.134,0,0,1-.986,8.724.509.509,0,0,0,.329.657,23.419,23.419,0,0,1,2.579,1.467c1.087.733,2.1,1.568,3.161,2.352a21.477,21.477,0,0,0,5.487-13.4Zm-26.728-15.349a21.616,21.616,0,0,0-5.538,13.453h10.545c.076-1.239.1-2.478.253-3.667.2-1.77.531-3.515.759-5.285a.637.637,0,0,0-.2-.531A24.436,24.436,0,0,1,377.315,370.479Zm7.814,23.795c2.4-.48,4.729-.936,7.08-1.391v-7.055h-8.016A43.626,43.626,0,0,0,385.129,394.273Zm9.027-8.446v7.055c2.377.48,4.7.936,7.08,1.391a44.077,44.077,0,0,0,.936-8.446Zm-1.947-8.951c-2.4-.48-4.729-.936-7.08-1.416a43.626,43.626,0,0,0-.936,8.446h8.016Zm1.922,29.231c2.6-.556,6.094-5.841,6.549-9.836a18.211,18.211,0,0,0-6.549-1.315Zm-1.947.2V394.931a20.831,20.831,0,0,0-6.65,1.391c.506,1.34.91,2.63,1.441,3.869a12.391,12.391,0,0,0,3.338,4.906A17.187,17.187,0,0,0,392.184,406.31Zm7-30.293c-1.745.253-3.363.506-5.032.759v7.156h8.016c-.051-.759-.1-1.467-.126-2.048-.961-.253-1.846-.43-2.68-.708a1.091,1.091,0,0,1-.733-1.365c.177-1.062.379-2.1.556-3.161A5.277,5.277,0,0,0,399.188,376.016Zm8.547,24.579a20.636,20.636,0,0,0-5.26-3.591,22.258,22.258,0,0,1-4.4,8.724A21.338,21.338,0,0,0,407.735,400.6Zm-29.1.025a21.7,21.7,0,0,0,9.66,5.133,22.429,22.429,0,0,1-4.4-8.724A19.791,19.791,0,0,0,378.63,400.62Zm23.921-32.241c.683-.4,1.239-.708,1.77-1.062,1.264-.809,1.264-.809.885-2.225s-.759-2.832-1.163-4.3c-.455.2-.86.379-1.264.582a.542.542,0,0,0-.228.379Zm-16.967,5.083a20.778,20.778,0,0,0,6.6,1.365v-2.276c-2.023-.354-3.97-.708-5.993-1.062Q385.925,372.4,385.584,373.462Zm14.515-1.947c-2,.354-3.97.708-5.968,1.062v2.377c1.441-.253,2.832-.48,4.223-.708a1.1,1.1,0,0,0,1.087-.86,1.239,1.239,0,0,1,.455-.632C400.554,372.35,400.351,371.92,400.1,371.515Zm-16.234,1.239c.228-.708.43-1.34.582-1.9-1.492-.885-2.933-1.745-4.375-2.579-.1-.051-.329-.076-.4,0-.354.253-.683.556-1.062.885A21.3,21.3,0,0,0,383.864,372.754Zm23.871-3.616c-.43-.379-.834-.708-1.163-1.011-1.29.733-2.529,1.416-3.742,2.149a.542.542,0,0,0-.253.4,9.715,9.715,0,0,0,0,1.214c.025.4.354.632.708.43A19.731,19.731,0,0,0,407.735,369.138Zm-6.752,7.915c-.152.91-.3,1.745-.455,2.706h2.251c-.177-.961-.329-1.821-.48-2.706Zm1.441-1.922a4.167,4.167,0,0,0-.506-1.113c-.076-.1-.556-.1-.632.025a6.953,6.953,0,0,0-.4,1.113C401.464,375.131,401.818,375.131,402.425,375.131Z" fill="#fff"/>
      <path id="Path_16281" data-name="Path 16281" d="M498.8,412.386v-6.625a.51.51,0,0,1,.228-.379c.379-.2.784-.379,1.264-.582.4,1.467.784,2.883,1.163,4.3s.379,1.416-.885,2.225C500.039,411.678,499.483,411.981,498.8,412.386Z" transform="translate(-96.249 -44.006)" fill="#fff"/>
    </g>
  </g>
</svg>
