<svg xmlns="http://www.w3.org/2000/svg" width="83" height="83" viewBox="0 0 83 83">
  <g id="Group_4737" data-name="Group 4737" transform="translate(-648 -1713)">
    <circle id="Ellipse_11" data-name="Ellipse 11" cx="41.5" cy="41.5" r="41.5" transform="translate(648 1713)" fill="#0077bc"/>
    <g id="Group_4701" data-name="Group 4701" transform="translate(658.957 1724.5)">
      <path id="Path_16329" data-name="Path 16329" d="M50.112,356.912v-2.255c-1.884-.5-4.086.5-5.73-1.167-1.645-1.645-.8-3.767-1.114-5.73H40.959c0,.769-.027,1.592,0,2.388.053.982-.292,1.486-1.353,1.459-1.486-.053-3-.027-4.484,0-.663,0-1.406-.08-1.247-.9.08-.371.822-.8,1.326-.849a38.944,38.944,0,0,1,3.979-.053v-2.573a1.142,1.142,0,0,1,1.3-1.3h2.812v-2.467H35.547c0,.955.027,1.91,0,2.865-.027.637-.053,1.406-.9,1.247-.345-.053-.743-.769-.8-1.194-.106-1.141,0-2.282-.053-3.422-.027-1.008.345-1.406,1.406-1.406,2.68.053,5.359.027,8.118.027v-2.653H37.484a1.4,1.4,0,0,1-1.433-2.1c.292-.743.8-.8,1.486-.371a3.531,3.531,0,0,0,1.539.637c1.406.08,2.786.027,4.271.027v-2.6c-2.547,0-5.041.026-7.534-.027-.69-.027-1.857.4-1.884-.822-.027-1.327,1.194-.875,1.91-.9,2.467-.053,4.908-.027,7.455-.027v-2.6H38.227c-.159,0-.292.159-.451.212-.451.186-.929.371-1.38.557a4.985,4.985,0,0,1-.292-1.831c.053-.318.743-.69,1.167-.716,1.751-.08,3.528-.027,5.279-.027.212,0,.424-.027.743-.027v-2.6H35.707c-1.831,0-1.857-.027-1.884-1.831a25,25,0,0,1,.053-3.157c.053-.4.531-.716.822-1.088.292.371.8.69.849,1.088a23.906,23.906,0,0,1,.053,3.1h7.747v-2.467c-.822,0-1.645-.026-2.467,0-1.167.053-1.751-.4-1.671-1.618.053-.69,0-1.406,0-2.282H35.335c-.663,0-1.459.027-1.459-.9,0-.982.8-.875,1.459-.875,1.459,0,2.918.027,4.351,0,.955-.026,1.38.4,1.326,1.353-.027.8,0,1.592,0,2.467h2.282c.4-1.857-.5-4.006,1.088-5.651,1.618-1.7,3.741-.849,5.73-1.167v-2.308c-.849,0-1.724-.027-2.6,0-.822.027-1.22-.345-1.22-1.194,0-1.618-.053-3.263.053-4.882.027-.371.557-.716.849-1.088.292.371.849.69.875,1.088.106,1.353.053,2.706.053,4.3.849,0,1.645.027,2.414,0,1.088-.053,1.512.478,1.486,1.512-.027.822,0,1.671,0,2.573h2.494V304.94a27.766,27.766,0,0,1-2.971-.027c-.451-.053-.822-.531-1.247-.822.4-.292.769-.8,1.194-.849,1.167-.106,2.388-.027,3.555-.053.955-.026,1.353.371,1.326,1.327-.027,2.68,0,5.359,0,8.145h2.653V306.9c0-1.353.345-1.671,1.645-1.512a1.472,1.472,0,0,1,.982.61c.106.212-.212.663-.371.982-.133.292-.451.557-.451.849-.053,1.592-.027,3.157-.027,4.828h2.6v-4.4a36.608,36.608,0,0,1,.053-3.82c.027-.424.557-.8.849-1.194.292.424.8.822.822,1.247.08,2.255.053,4.484.053,6.739v1.486h2.6v-4.908c0-.239-.186-.451-.265-.69-.186-.424-.345-.849-.531-1.273a4.987,4.987,0,0,1,1.8-.371c.318.053.769.716.8,1.114.08,1.618.027,3.263.027,4.881v1.247h2.653c0-2.626.053-5.226-.027-7.8-.027-1.247.345-1.777,1.645-1.7,1.141.08,2.282-.053,3.422.053.371.027.69.478,1.035.743-.345.318-.637.849-1.008.9a25.672,25.672,0,0,1-3.21.053v7.747h2.494c0-.875.027-1.751,0-2.6-.027-1.061.478-1.539,1.539-1.486.743.027,1.486,0,2.361,0V304.7c0-.69.027-1.486.955-1.353.345.053.769.849.822,1.326.106,1.486.027,3,.053,4.484,0,.875-.371,1.3-1.273,1.273-.822-.027-1.645,0-2.573,0v2.255c1.857.478,4.059-.531,5.7,1.141,1.645,1.645.8,3.767,1.114,5.73h2.308c0-.822.027-1.671,0-2.52-.027-.875.318-1.327,1.22-1.3,1.592.027,3.184-.053,4.749.053.4.027.769.557,1.167.875-.424.292-.822.8-1.247.849-1.3.106-2.626.053-4.112.053v2.573a1.164,1.164,0,0,1-1.273,1.327H85.317v2.441h7.747a22.221,22.221,0,0,1,.053-2.971c.053-.424.557-.8.875-1.194.292.424.769.8.8,1.247.106,1.167.027,2.388.053,3.555.027.982-.424,1.3-1.38,1.273-2.68-.026-5.359-.026-8.118-.026v2.653h5.677c1.459,0,1.937.584,1.618,1.963-.186.769-.849.955-1.512.531a3.613,3.613,0,0,0-1.645-.637c-1.353-.08-2.706-.027-4.139-.027v2.6h7.243a5.149,5.149,0,0,1,1.433.08c.292.08.743.531.716.743-.053.318-.424.822-.716.849a15.679,15.679,0,0,1-2.494.08H85.37v2.6h5.067c.159,0,.292-.133.451-.212.451-.186.929-.371,1.38-.557a5.661,5.661,0,0,1,.318,1.831c-.053.318-.743.716-1.167.716-1.751.08-3.528.027-5.279.027-.212,0-.424.027-.743.027v2.626h7.588c1.831,0,1.857.027,1.884,1.8,0,1.088.053,2.2-.053,3.29-.027.345-.531.637-.822.955-.292-.318-.8-.61-.822-.955-.106-1.035-.053-2.1-.053-3.237H85.344v2.467h2.335c1.539.027,1.777.239,1.777,1.751v2.149h3.873c.663,0,1.459-.027,1.459.9,0,.955-.8.876-1.459.876-1.459,0-2.918-.027-4.351,0-.955.026-1.38-.4-1.326-1.353.027-.8,0-1.592,0-2.467H85.37c-.4,1.857.5,4.006-1.088,5.651-1.618,1.7-3.741.849-5.73,1.167v2.308c.822,0,1.645.027,2.467,0,.955-.053,1.38.345,1.353,1.327-.027,1.539.053,3.077-.053,4.616-.027.424-.557.822-.849,1.22-.318-.4-.849-.8-.875-1.22-.106-1.3-.053-2.626-.053-4.165-.849,0-1.618-.027-2.388,0-1.088.053-1.539-.451-1.486-1.512.027-.822,0-1.671,0-2.573H74.175v7.747a20.241,20.241,0,0,1,2.839.027c.478.08,1.247.478,1.326.822.159.875-.637.875-1.247.875-1.088,0-2.2-.053-3.29,0-1.061.053-1.486-.371-1.459-1.459.053-2.626.027-5.279.027-8.012H69.718v5.73c0,1.353-.451,1.751-1.777,1.539a1.225,1.225,0,0,1-.849-.61c-.08-.265.212-.663.345-1.008.133-.318.451-.637.451-.955.053-1.539.027-3.077.027-4.7h-2.6v3.741c0,1.406.027,2.812,0,4.218,0,.637.106,1.459-.9,1.433-.982-.027-.822-.875-.849-1.486-.027-2.149,0-4.324,0-6.473V354.63h-2.6v5.041c0,.186.186.371.265.557.186.424.345.849.531,1.3a4.389,4.389,0,0,1-1.671.4,1.441,1.441,0,0,1-.9-1.008c-.106-1.724-.053-3.422-.053-5.147v-1.088H56.479v3.343c0,1.618-.027,3.263,0,4.882.027.9-.345,1.3-1.247,1.273-1.22-.026-2.467.053-3.688-.053-.4-.027-.769-.5-1.141-.769.4-.318.743-.849,1.167-.9a23.494,23.494,0,0,1,3.077-.053v-7.747H52.155v1.7c0,2.361-.027,2.388-2.308,2.388H48.282v3.926c0,.69-.027,1.486-.955,1.353-.345-.053-.769-.849-.822-1.327-.106-1.486-.027-3-.053-4.483-.027-.875.345-1.3,1.247-1.273C48.308,356.938,49.131,356.912,50.112,356.912Zm14.14-42.342H47.618c-2.069,0-2.494.424-2.494,2.441v33.268c0,1.963.451,2.441,2.388,2.441h33.4c1.884,0,2.361-.478,2.361-2.308v-33.4c0-1.99-.451-2.441-2.52-2.441Z" transform="translate(-33.795 -303.185)" fill="#fff"/>
      <path id="Path_16330" data-name="Path 16330" d="M128.254,385.458c0,.849.027,1.671,0,2.52a2.452,2.452,0,0,1-2.2,2.68c-.929.133-1.273.5-1.3,1.406a8.97,8.97,0,0,1-.239,1.433c-.186,1.22-.4,2.414-2.122,2.122-.239-.027-.5.265-.769.4-.345.186-.69.531-1.035.557-1.486.053-2.945-.027-4.43-.027h-1.565c-.478,0-1.035.186-1.406,0-.982-.424-1.8-1.167-3-1.088-.186,0-.5-.557-.637-.875a6.309,6.309,0,0,1-.292-1.406c-.159-1.326-.239-2.494-2.069-2.733a2.72,2.72,0,0,1-1.565-1.99,30.826,30.826,0,0,1,.186-6.818,11.308,11.308,0,0,1,12.257-9.259,11.473,11.473,0,0,1,10.187,11.381Zm-2.865,3.184c.053.159.133.318.186.478.292-.345.822-.69.849-1.035a33.387,33.387,0,0,0-.159-6.314,9.488,9.488,0,0,0-18.6-.08,30.412,30.412,0,0,0-.239,6.42c0,.345.557.69.716.849.716-.531,1.167-.875,1.645-1.22a10.37,10.37,0,0,1,.743,1.671c.292,1.406.451,2.839.61,3.847a22.633,22.633,0,0,0,2.308,1.353,1.176,1.176,0,0,0,1.035-.292c.663-.743,1.273-.743,1.831.027.424.584.769.663,1.22.08.69-.9,1.3-.875,1.99.027a1,1,0,0,0,.955.133,24.945,24.945,0,0,0,2.308-1.353c.159-1.114.318-2.626.61-4.139a4.676,4.676,0,0,1,.743-1.38C124.514,388.031,124.938,388.323,125.389,388.642Z" transform="translate(-86.495 -353.99)" fill="#fff"/>
      <path id="Path_16331" data-name="Path 16331" d="M95.365,361h2.759c.637,0,1.406.053,1.273.875-.053.345-.849.769-1.326.822a26.239,26.239,0,0,1-3.82.026c-.955-.053-1.353.212-1.3,1.247a30,30,0,0,1-.027,4.086c-.027.424-.557.8-.875,1.194-.265-.371-.769-.743-.8-1.141-.08-1.963-.027-3.953-.053-5.916,0-.849.424-1.167,1.22-1.167C93.429,361,94.384,361,95.365,361Z" transform="translate(-75.971 -345.662)" fill="#fff"/>
      <path id="Path_16332" data-name="Path 16332" d="M178.6,360.967c.929,0,1.857.027,2.759,0s1.406.318,1.38,1.3c-.027,1.884.053,3.767-.053,5.651-.027.451-.451,1.167-.8,1.22-.849.133-.9-.61-.9-1.247,0-1.353-.053-2.733,0-4.086.027-.876-.292-1.141-1.141-1.114a32.716,32.716,0,0,1-3.953-.027c-.478-.053-1.3-.478-1.326-.8-.133-.929.743-.875,1.38-.9C176.844,360.941,177.72,360.967,178.6,360.967Z" transform="translate(-137.207 -345.629)" fill="#fff"/>
      <path id="Path_16333" data-name="Path 16333" d="M91.221,448.159a28.756,28.756,0,0,1,.027-3.024c.027-.371.5-.69.769-1.035.318.345.849.663.875,1.035.106,1.486.08,2.971.053,4.484-.027.743.265,1.008,1.008.982,1.406-.027,2.812-.08,4.218.027.451.027,1.167.451,1.22.769.159.849-.61.9-1.247.9H92.468c-.9,0-1.273-.4-1.247-1.273.027-.929,0-1.91,0-2.865Z" transform="translate(-75.965 -406.716)" fill="#fff"/>
      <path id="Path_16334" data-name="Path 16334" d="M178.326,452.411a21.052,21.052,0,0,1-2.892-.053c-.371-.053-.69-.584-1.035-.875.345-.265.663-.743,1.035-.769,1.486-.08,3-.08,4.484-.027.743.027,1.008-.265.982-1.008q-.04-2.109,0-4.218c0-.637.106-1.38.929-1.22.345.053.743.8.769,1.247.08,1.884.027,3.767.053,5.651,0,.875-.4,1.3-1.273,1.273-1.035-.027-2.043,0-3.051,0Z" transform="translate(-137.098 -406.802)" fill="#fff"/>
      <path id="Path_16335" data-name="Path 16335" d="M125.675,404.15a2.956,2.956,0,0,1-2.945,3.024,3.015,3.015,0,0,1-3.131-3.024,3.1,3.1,0,0,1,3.131-3.051A3.03,3.03,0,0,1,125.675,404.15Zm-1.565.265a4.3,4.3,0,0,0-.027-.584c-.478-.292-1.035-.9-1.459-.822-.451.08-.822.769-1.247,1.194.424.4.822,1.088,1.3,1.141C123.128,405.37,123.633,404.76,124.11,404.415Z" transform="translate(-96.836 -375.122)" fill="#fff"/>
      <path id="Path_16336" data-name="Path 16336" d="M157.246,401.2a3.131,3.131,0,0,1,3.024,3.024,3.03,3.03,0,0,1-3.1,3.051,3.038,3.038,0,0,1,.08-6.075Zm1.38,3.475c.027-.186.027-.371.053-.584-.451-.371-.9-1.035-1.353-1.008a1.706,1.706,0,0,0-1.3,1.061.976.976,0,0,0,1.061,1.3A5.573,5.573,0,0,0,158.626,404.674Z" transform="translate(-122.252 -375.196)" fill="#fff"/>
      <path id="Path_16337" data-name="Path 16337" d="M142.045,432.595a5.48,5.48,0,0,1-.716,1.22,4.076,4.076,0,0,1-1.247.557c-.106-.451-.212-.929-.292-1.38-.027-.106.106-.239.159-.345.531-.955.822-2.361,2.308-2.122,1.459.212,1.645,1.7,2.122,2.759.106.265-.239.743-.371,1.114a3.852,3.852,0,0,1-1.167-.478A7.269,7.269,0,0,1,142.045,432.595Z" transform="translate(-111.668 -396.723)" fill="#fff"/>
    </g>
  </g>
</svg>
