<svg xmlns="http://www.w3.org/2000/svg" width="83" height="83" viewBox="0 0 83 83">
  <g id="Group_4730" data-name="Group 4730" transform="translate(-648 -1387)">
    <circle id="Ellipse_4" data-name="Ellipse 4" cx="41.5" cy="41.5" r="41.5" transform="translate(648 1387)" fill="#0077bc"/>
    <g id="Group_4695" data-name="Group 4695" transform="translate(-828.791 138.957)">
      <path id="Path_16282" data-name="Path 16282" d="M131.5,187.826c1.811,2.7,1.738,5.264-.41,7.944,1.231,0,2.294-.048,3.356.024.338.024.676.338,1.014.531-.338.169-.676.507-1.038.531q-10.032.072-20.089.072-12.314,0-24.628-.048a1.072,1.072,0,0,1-.483-.024,7.863,7.863,0,0,1-.821-.531c.266-.193.507-.531.8-.531,1.159-.072,2.294-.024,3.187-.024a18.4,18.4,0,0,1-1.135-4.032,17.8,17.8,0,0,1,.869-4.225c-1.376-1.618-1.207-2.7.942-4.129,1.207-.8,2.342-1.69,3.622-2.366a3.009,3.009,0,0,0,1.545-2.487c.362-2.415.749-4.829,1.183-7.219a4.929,4.929,0,0,1,2.9-4.008,1.235,1.235,0,0,0,.483-.918c.072-.918,0-1.835.024-2.753a2.539,2.539,0,0,0-.99-2.559,2.362,2.362,0,0,1,.169-3.6,2.2,2.2,0,0,0,1.038-2.052,9.036,9.036,0,0,1,13.835-6.688,8.676,8.676,0,0,1,4.153,6.688,2.384,2.384,0,0,0,1.038,2.052c1.28.821,1.087,2.946-.145,3.96a2.2,2.2,0,0,0-.652,1.231c-.1.7.024,1.449-.048,2.149-.1,1.352,0,2.415,1.449,3.26,1.521.893,1.883,2.7,2.125,4.394.338,2.294.652,4.588,1.038,6.881a2.069,2.069,0,0,0,.821,1.207c1.4.99,2.873,1.883,4.3,2.849C132.9,184.735,133.069,186.015,131.5,187.826ZM111.893,186.3c1.642,0,3.284-.048,4.926.024.99.048,1.425-.29,1.545-1.3.362-2.849.821-5.7,1.183-8.547a3.427,3.427,0,0,0-.121-1.3c-.579-2.076-1.183-4.153-1.811-6.205-.1-.314-.483-.531-.724-.773a4.327,4.327,0,0,0-.483,1.014,40.658,40.658,0,0,1-.749,4.225,3.92,3.92,0,0,1-3.839,2.922,3.879,3.879,0,0,1-3.718-2.9,38.412,38.412,0,0,1-.749-4.1,10.108,10.108,0,0,0-.338-1.135,3.674,3.674,0,0,0-.7.942c-.579,1.666-1.159,3.332-1.594,5.022a8.757,8.757,0,0,0-.241,3.066c.29,2.7.773,5.384,1.111,8.089.1.773.386,1.038,1.135,1.014C108.465,186.281,110.179,186.3,111.893,186.3Zm-7.7-29.505a8.589,8.589,0,0,0,3.453,9.127,8.008,8.008,0,0,0,9.03-.169,8.594,8.594,0,0,0,3.163-9.006c-2.922-.266-5.771-.749-7.92-3.26C109.938,156.147,107.064,156.51,104.191,156.8Zm14.946,38.8c.169.072.241.145.314.145,1.787,0,3.6.048,5.384,0a22.188,22.188,0,0,0,3.815-.241c2.2-.435,3.235-2.125,2.994-4.612a3.7,3.7,0,0,0-3.912-3.429,13.264,13.264,0,0,0-2.7.483c-2.221.555-4.443,1.159-6.712,1.738C118.63,191.81,118.9,193.742,119.137,195.6Zm-14.391.145c.241-1.714.459-3.38.724-5.022.121-.8-.169-1.111-.942-1.3-2.342-.555-4.636-1.183-6.954-1.787-2.535-.652-4.781.628-5.167,2.9-.507,2.97.918,5.046,3.791,5.191C98.951,195.842,101.752,195.746,104.746,195.746Zm15.091-40.129c-.1-4.056-4.081-7.485-8.137-7.268-4.032.217-7.775,3.839-7.413,7.268,2.8-.241,5.529-.483,7.026-3.429.362-.724.8-.676,1.207.024C114.163,155.037,116.94,155.327,119.837,155.616Zm-1.183,12.676.217,1.014c.942,3.743,1.932,7.485,2.8,11.276a4.231,4.231,0,0,0,2.246,3.066c1.835.966,3.694,1.907,5.553,2.849.628.314,1.3.628,1.811-.145.531-.8,0-1.376-.6-1.835a19.115,19.115,0,0,0-3.018-1.98c-2.246-1.038-3.091-2.753-3.26-5.167a35.566,35.566,0,0,0-1.183-6.712C122.614,168.534,120.924,167.761,118.654,168.292Zm-13.232-.024c-2.922-.531-4.563.628-5.046,3.5-.435,2.632-.8,5.312-1.3,7.944a2.814,2.814,0,0,1-1.014,1.594c-1.5,1.111-3.115,2.1-4.66,3.163-.579.386-1.328.869-.845,1.738s1.231.507,1.907.169c1.69-.821,3.356-1.69,5.07-2.463a4.974,4.974,0,0,0,2.849-3.863c.652-3.115,1.521-6.205,2.318-9.3A25.144,25.144,0,0,1,105.422,168.268Zm3.187-.193c-.6,3.429.6,6.664,2.7,6.881a2.233,2.233,0,0,1,.1-.7c.145-.314.362-.579.531-.869a5.624,5.624,0,0,1,.483.821,5.034,5.034,0,0,1,.169.869c2.149-.8,3.356-4.491,2.559-7.026C112.98,168.075,110.855,168.075,108.61,168.075Zm8.668,21.876c-1.763.483-3.38.845-4.9,1.376a2.77,2.77,0,0,0-1.642,3.356c.145.435.7,1.038,1.087,1.038,2.028.1,4.056.048,6.205.048C117.785,193.814,117.543,192,117.278,189.951Zm-15.211-2.535c-.024.072-.024.145-.048.217,1.618.41,3.26.724,4.829,1.28a13.726,13.726,0,0,0,9.9.121,45.646,45.646,0,0,1,5.119-1.376c-.024-.072-.024-.145-.048-.241Zm7.8,8.33a4.993,4.993,0,0,1,.773-4.732c-1.376-.338-2.632-.676-4.008-1.014-.266,1.98-.507,3.815-.773,5.747Zm-5.24-9.513c-.314-2.27-.6-4.346-.893-6.423-.1-.048-.217-.121-.314-.169.048,3.887-2.97,5.046-5.529,6.592Zm15.936-6.3c-.145.072-.29.145-.41.217-.266,2-.555,3.984-.845,6.085h6.64C123.531,184.663,120.513,183.721,120.561,179.93Zm-3.453-12.942h2.922v-3.115C119.04,164.936,118.147,165.9,117.109,166.989Zm-13.135-.024h2.946c-1.014-1.087-1.932-2.076-2.946-3.139Zm-.966-6.447c-.048-.821-.072-1.521-.121-2.39C102.018,159.238,102.042,159.7,103.008,160.518Zm18.157.048a1.319,1.319,0,0,0,0-2.221Z" transform="translate(1407.242 1117.882)" fill="#fff" stroke="#fff" stroke-width="0.5"/>
      <path id="Path_16283" data-name="Path 16283" d="M66.512,201.374a19.846,19.846,0,0,0,6.543,5.409c2.125,1.062,4.443,1.763,6.64,2.656a4.222,4.222,0,0,1,.99.8,3.153,3.153,0,0,1-1.28.241,25.993,25.993,0,0,1-13.352-7.847c-.869-.966-.8-1.594.048-2.511a25.615,25.615,0,0,1,15.381-8.137,2.608,2.608,0,0,1,1.111.362c-.29.241-.579.628-.918.676a24.793,24.793,0,0,0-14.27,7.316C67.14,200.65,66.875,200.988,66.512,201.374Z" transform="translate(1424.662 1084.003)" fill="#fff" stroke="#fff" stroke-width="0.5"/>
      <path id="Path_16284" data-name="Path 16284" d="M251.781,201.329a24.348,24.348,0,0,0-13.932-8.065,13.045,13.045,0,0,1-1.4-.266c-.29-.1-.483-.386-.749-.579.314-.145.652-.483.918-.435a40.461,40.461,0,0,1,4.781,1.135,24.662,24.662,0,0,1,10.745,6.978c1.135,1.28,1.135,1.352.024,2.584a25.292,25.292,0,0,1-13.232,7.8c-.386.1-.869-.169-1.328-.29.338-.241.652-.628,1.038-.724a25.4,25.4,0,0,0,11.541-6.326c.41-.386.773-.8,1.159-1.207A4.347,4.347,0,0,0,251.781,201.329Z" transform="translate(1295.508 1084)" fill="#fff" stroke="#fff" stroke-width="0.5"/>
      <path id="Path_16285" data-name="Path 16285" d="M102.522,143.824a24.06,24.06,0,0,1,9.368,1.811,2.672,2.672,0,0,1,.652.29,4.49,4.49,0,0,1,.555.773c-.338.048-.7.241-1.014.169-2.27-.579-4.515-1.3-6.809-1.787a30.614,30.614,0,0,0-3.96-.217c-.918-.072-1.183.362-1.183,1.207a26.749,26.749,0,0,0,1.183,8.282,2.449,2.449,0,0,1,.217.676,6.436,6.436,0,0,1-.241.918c-.241-.193-.652-.338-.724-.6a34.414,34.414,0,0,1-1.256-5.119c-.217-1.738-.072-3.5-.121-5.264-.024-.845.435-1.135,1.183-1.159C101.073,143.824,101.8,143.824,102.522,143.824Z" transform="translate(1399.06 1120.547)" fill="#fff" stroke="#fff" stroke-width="0.5"/>
      <path id="Path_16286" data-name="Path 16286" d="M228.249,144.955a24.192,24.192,0,0,0-11.179,1.69,1.861,1.861,0,0,1-.652.266,4.455,4.455,0,0,1-.918-.193c.169-.266.29-.7.531-.773a47.594,47.594,0,0,1,6.181-1.835,42.669,42.669,0,0,1,5.843-.314c.893-.024,1.352.314,1.4,1.328a24.413,24.413,0,0,1-1.256,9.682c-.145.435-.628.749-.942,1.111a4.442,4.442,0,0,1-.048-1.376,24.953,24.953,0,0,0,1.207-8.741A4.72,4.72,0,0,0,228.249,144.955Z" transform="translate(1310.83 1120.551)" fill="#fff" stroke="#fff" stroke-width="0.5"/>
      <path id="Path_16287" data-name="Path 16287" d="M163.459,110.429a24.32,24.32,0,0,0-5.867,7.244c-.121.217-.169.483-.338.628a4.808,4.808,0,0,1-.8.579c-.072-.338-.29-.773-.169-1.038a24.211,24.211,0,0,1,6.519-8.354c.531-.435.918-.266,1.352.1a23.949,23.949,0,0,1,6.374,8.33c.121.266-.072.676-.121,1.014a3.212,3.212,0,0,1-.845-.628c-1.642-2.246-3.26-4.539-4.9-6.785A6.879,6.879,0,0,0,163.459,110.429Z" transform="translate(1355.773 1146.771)" fill="#fff" stroke="#fff" stroke-width="0.5"/>
      <path id="Path_16288" data-name="Path 16288" d="M118.7,212.86c-.483.048-.845.217-1.062.1a10,10,0,0,1-4.877-5.36c-.072-.193.169-.531.266-.8.217.121.579.169.652.338a10.576,10.576,0,0,0,4.515,4.95C118.36,212.209,118.432,212.474,118.7,212.86Z" transform="translate(1388.775 1072.759)" fill="#fff" stroke="#fff" stroke-width="0.5"/>
      <path id="Path_16289" data-name="Path 16289" d="M237.679,213.3c-.145-.1-.507-.266-.483-.362a1.368,1.368,0,0,1,.362-.749,24.165,24.165,0,0,0,2.415-1.932,29.467,29.467,0,0,0,1.932-2.849c.145-.193.483-.266.724-.41.072.266.29.6.217.8a10.184,10.184,0,0,1-4.781,5.312Z" transform="translate(1294.374 1072.607)" fill="#fff" stroke="#fff" stroke-width="0.5"/>
      <path id="Path_16290" data-name="Path 16290" d="M294.677,339.1c.555.29,1.111.555,1.666.845a14.6,14.6,0,0,1-1.763.483,3.938,3.938,0,0,1-1.3,0c-.241-.048-.459-.338-.676-.507.217-.193.41-.483.652-.531a5.858,5.858,0,0,1,1.3-.024A2.361,2.361,0,0,0,294.677,339.1Z" transform="translate(1252.346 972.403)" fill="#fff" stroke="#fff" stroke-width="0.5"/>
      <path id="Path_16291" data-name="Path 16291" d="M66.406,341.224a7.79,7.79,0,0,1-1.3-.024.918.918,0,0,1-.507-.531c-.024-.121.241-.459.41-.483a28.024,28.024,0,0,1,2.849,0c.169,0,.459.338.435.459-.048.217-.266.531-.459.555A9.3,9.3,0,0,1,66.406,341.224Z" transform="translate(1425.3 971.606)" fill="#fff" stroke="#fff" stroke-width="0.5"/>
      <path id="Path_16292" data-name="Path 16292" d="M77.078,310.5a16.055,16.055,0,0,1,1.666,1.569c.362.459,1.3.7.821,1.618-.531-.29-1.087-.555-1.594-.893a3.292,3.292,0,0,1-.966-1.038C76.86,311.538,77.005,311.176,77.078,310.5Z" transform="translate(1415.932 994.097)" fill="#fff" stroke="#fff" stroke-width="0.5"/>
      <path id="Path_16293" data-name="Path 16293" d="M285.066,315.635c-.024-.314-.193-.749-.048-.918a15,15,0,0,1,1.835-1.883c.121-.1.555.169.869.266-.724.893-1.473,1.787-2.2,2.68C285.356,315.732,285.211,315.684,285.066,315.635Z" transform="translate(1258.142 992.342)" fill="#fff" stroke="#fff" stroke-width="0.5"/>
      <path id="Path_16294" data-name="Path 16294" d="M277.207,307.979c-.459.7-.893,1.352-1.3,1.98-.169-.169-.531-.41-.507-.483.338-.724.724-1.4,1.111-2.076C276.7,307.545,276.893,307.714,277.207,307.979Z" transform="translate(1265.397 996.449)" fill="#fff" stroke="#fff" stroke-width="0.5"/>
      <path id="Path_16295" data-name="Path 16295" d="M291.131,328.8c-.241-.338-.386-.531-.531-.724.652-.386,1.3-.773,1.98-1.087.1-.048.386.338.579.507C292.507,327.9,291.856,328.315,291.131,328.8Z" transform="translate(1253.863 981.594)" fill="#fff" stroke="#fff" stroke-width="0.5"/>
      <path id="Path_16296" data-name="Path 16296" d="M71.848,324.9c1.014.724,1.618,1.159,2.246,1.594-.169.169-.435.531-.507.483a21.38,21.38,0,0,1-2.028-1.207C71.486,325.721,71.727,325.286,71.848,324.9Z" transform="translate(1420.027 983.174)" fill="#fff" stroke="#fff" stroke-width="0.5"/>
      <path id="Path_16297" data-name="Path 16297" d="M92.571,309.521c-.1.145-.145.41-.29.459-.193.072-.579.048-.628-.048a11.212,11.212,0,0,1-.773-1.859c-.048-.121.193-.41.386-.507a.619.619,0,0,1,.507.193C92.063,308.29,92.281,308.87,92.571,309.521Z" transform="translate(1405.365 996.331)" fill="#fff" stroke="#fff" stroke-width="0.5"/>
      <path id="Path_16298" data-name="Path 16298" d="M74.2,283.794c-.29-.362-.628-.676-.6-.7a16.616,16.616,0,0,1,1.425-1.5,3.147,3.147,0,0,1,.531.459C75.166,282.611,74.731,283.142,74.2,283.794Z" transform="translate(1418.472 1016.022)" fill="#fff" stroke="#fff" stroke-width="0.5"/>
      <path id="Path_16299" data-name="Path 16299" d="M131.694,129.8c-.652.507-1.183.942-1.763,1.328a2.323,2.323,0,0,1-.435-.531,16.324,16.324,0,0,1,1.5-1.4A7.578,7.578,0,0,1,131.694,129.8Z" transform="translate(1376.068 1131.626)" fill="#fff" stroke="#fff" stroke-width="0.5"/>
      <path id="Path_16300" data-name="Path 16300" d="M89.594,283a4.572,4.572,0,0,1-.773.555,16.109,16.109,0,0,1-1.425-1.449,3.005,3.005,0,0,1,.459-.507C88.411,282.01,88.942,282.445,89.594,283Z" transform="translate(1408.003 1016.019)" fill="#fff" stroke="#fff" stroke-width="0.5"/>
      <path id="Path_16301" data-name="Path 16301" d="M297.565,175.994c-.266-.435-.531-.773-.483-.845.459-.507.966-.966,1.449-1.449.169.193.483.507.459.555C298.579,174.811,298.12,175.318,297.565,175.994Z" transform="translate(1248.951 1097.867)" fill="#fff" stroke="#fff" stroke-width="0.5"/>
      <path id="Path_16302" data-name="Path 16302" d="M144.572,131.37c-.555-.676-.99-1.183-1.376-1.738-.024-.048.314-.338.483-.531.483.483.966.966,1.425,1.473A6.622,6.622,0,0,1,144.572,131.37Z" transform="translate(1365.677 1131.698)" fill="#fff" stroke="#fff" stroke-width="0.5"/>
      <path id="Path_16303" data-name="Path 16303" d="M299.316,188.828c-.41.29-.724.6-.773.555a14.715,14.715,0,0,1-1.449-1.3,4.472,4.472,0,0,1,.386-.579C298.037,187.91,298.592,188.321,299.316,188.828Z" transform="translate(1248.938 1087.399)" fill="#fff" stroke="#fff" stroke-width="0.5"/>
      <path id="Path_16304" data-name="Path 16304" d="M284,189.846a5.947,5.947,0,0,1-.507-.845c.459-.483.966-.942,1.449-1.4.145.145.435.41.386.459C284.992,188.59,284.557,189.121,284,189.846Z" transform="translate(1259.254 1087.323)" fill="#fff" stroke="#fff" stroke-width="0.5"/>
      <path id="Path_16305" data-name="Path 16305" d="M88.652,266.8c.314.41.6.724.555.773a12.143,12.143,0,0,1-1.328,1.4c-.048.024-.386-.266-.579-.386C87.71,268.056,88.121,267.5,88.652,266.8Z" transform="translate(1408.076 1027.246)" fill="#fff" stroke="#fff" stroke-width="0.5"/>
      <path id="Path_16306" data-name="Path 16306" d="M285.694,175.225c-.435.29-.773.579-.821.531a15.389,15.389,0,0,1-1.376-1.425,2.989,2.989,0,0,1,.435-.531C284.487,174.21,285.018,174.645,285.694,175.225Z" transform="translate(1259.252 1097.791)" fill="#fff" stroke="#fff" stroke-width="0.5"/>
      <path id="Path_16307" data-name="Path 16307" d="M145.37,116.321c-.724.579-1.256.99-1.811,1.376a4.339,4.339,0,0,1-.459-.483,14.527,14.527,0,0,1,1.376-1.352C144.573,115.79,144.911,116.055,145.37,116.321Z" transform="translate(1365.749 1141.749)" fill="#fff" stroke="#fff" stroke-width="0.5"/>
      <path id="Path_16308" data-name="Path 16308" d="M74.1,266.8c.579.676,1.038,1.183,1.449,1.738a2.3,2.3,0,0,1-.507.459,12.661,12.661,0,0,1-1.449-1.352A7.433,7.433,0,0,1,74.1,266.8Z" transform="translate(1418.473 1027.246)" fill="#fff" stroke="#fff" stroke-width="0.5"/>
      <path id="Path_16309" data-name="Path 16309" d="M131.77,117.234c-.483.193-.821.435-.893.362-.483-.459-.918-.99-1.376-1.521.217-.121.579-.386.652-.314C130.659,116.172,131.118,116.655,131.77,117.234Z" transform="translate(1376.065 1141.825)" fill="#fff" stroke="#fff" stroke-width="0.5"/>
      <path id="Path_16312" data-name="Path 16312" d="M196.669,195.076c-.6-.338-1.087-.6-1.569-.893a5.444,5.444,0,0,1,1.545-.483,6.049,6.049,0,0,1,1.642.483C197.78,194.473,197.3,194.738,196.669,195.076Z" transform="translate(1326.305 1082.696)" fill="#fff" stroke="#fff" stroke-width="0.5"/>
      <path id="Path_16313" data-name="Path 16313" d="M164.621,194.654a.81.81,0,0,1-.241,0c-.435-.169-.845-.362-1.28-.555.435-.193.845-.386,1.28-.555a.412.412,0,0,1,.241,0c.555.169,1.111.338,1.69.483-.507.29-1.038.579-1.545.869C164.718,194.823,164.669,194.726,164.621,194.654Z" transform="translate(1350.578 1082.828)" fill="#fff" stroke="#fff" stroke-width="0.5"/>
    </g>
  </g>
</svg>
